<?xml version="1.0" encoding="UTF-8" standalone="no"?>
<svg
   xmlns:dc="http://purl.org/dc/elements/1.1/"
   xmlns:cc="http://creativecommons.org/ns#"
   xmlns:rdf="http://www.w3.org/1999/02/22-rdf-syntax-ns#"
   xmlns:svg="http://www.w3.org/2000/svg"
   xmlns="http://www.w3.org/2000/svg"
   width="50"
   height="50"
   viewBox="0 0 13.229166 13.229167"
   version="1.1"
   id="svg852">
  <title
     id="title1429">Heart</title>
  <defs
     id="defs846" />
  <metadata
     id="metadata849">
    <rdf:RDF>
      <cc:Work
         rdf:about="">
        <dc:format>image/svg+xml</dc:format>
        <dc:type
           rdf:resource="http://purl.org/dc/dcmitype/StillImage" />
        <dc:title>Heart</dc:title>
      </cc:Work>
    </rdf:RDF>
  </metadata>
  <g
     id="layer1"
     transform="translate(0,-283.77082)">
    <g
       transform="matrix(0.12870857,0,0,0.12870857,-9.7776299,276.24158)"
       id="g833">
      <path
         id="path4628-3-2"
         d="m 90.725293,151.33343 c 0.37607,-5.04163 -6.88364,-4.7085 -7.88531,-7.19125 3.68219,-4.05565 7.65397,-7.83434 11.50377,-11.7285 1.85443,0.70358 3.70887,1.40717 5.563295,2.11077 l 9.402262,-9.41316 c -6.9544,-7.24381 -14.605877,-15.17015 -15.827947,-25.603104 -0.99712,-9.126402 5.00706,-18.767023 14.250457,-20.660913 4.49587,-0.43309 9.34331,-0.5945 13.27052,2.03107 2.59935,1.41754 4.57458,3.65557 6.65832,5.70566 4.12868,-5.06727 10.40555,-8.82279 17.14396,-8.01653 3.06698,0.0601 5.87431,1.37709 8.59608,2.65542 2.57073,-2.43431 5.14144,-4.86863 7.71216,-7.30294 -0.94594,-1.54915 -5.58834,-4.00872 -3.31983,-5.08886 5.03047,-1.4494 10.06062,-2.90609 15.12501,-4.23233 -1.43646,5.35041 -3.00027,10.67032 -4.6632,15.95481 -1.89721,-0.57923 -3.23057,-3.47815 -4.83334,-3.98624 -2.34916,2.34467 -4.69833,4.68934 -7.0475,7.03401 3.75276,4.10435 5.90498,9.604291 5.38031,15.201291 -0.0226,8.439256 -5.74695,15.433236 -10.99965,21.490126 -6.85289,7.34341 -14.66857,13.76848 -23.01001,19.34999 -5.58744,-3.49942 -10.64359,-7.75832 -15.71232,-11.95538 l -9.49357,9.49356 c 0.62645,1.87075 1.25289,3.74149 1.87934,5.61224 -4.11191,3.95342 -8.156847,7.97851 -12.348457,11.84755 -0.61124,-1.01639 -0.92119,-2.20434 -1.34435,-3.30729 z"
         style="fill:#ff2201;fill-opacity:1;stroke:#ffc4c4;stroke-width:2.33084713;stroke-miterlimit:4;stroke-dasharray:none;stroke-opacity:1" />
      <path
         id="path900"
         d="m 119.89905,123.13557 c -0.7382,-0.71111 -1.47638,-1.42224 -2.21458,-2.13336 -5.7e-4,-1.9784 -9.4e-4,-3.95681 -0.002,-5.9352 1.95151,-0.0189 3.90722,0.0463 5.85543,-0.0461 0.11286,-0.36831 -0.36114,-0.80681 -0.26936,-1.24304 -0.59157,-0.0363 -1.24284,0.0714 -1.79793,-0.0528 -1.26271,-1.26234 -2.52542,-2.5247 -3.78814,-3.78702 0,-3.84999 0,-7.69998 0,-11.549947 1.47709,-1.421374 2.95419,-2.842798 4.43126,-4.264183 3.90309,-8.93e-4 7.80616,-0.0017 11.70924,-0.0035 1.49528,1.43735 2.99054,2.874707 4.48582,4.312041 -0.009,2.134089 -0.0186,4.268179 -0.0277,6.402269 -1.94258,0.009 -3.88519,0.0186 -5.82779,0.0276 0.0622,0.50387 -0.70794,0.45883 -1.03019,0.70915 -1.15949,0.25266 -0.14826,0.67367 0.613,0.52428 0.79702,0.0517 1.66829,-0.0789 2.43108,0.054 1.28025,1.28061 2.5605,2.56123 3.84075,3.84183 0,3.65704 0,7.31408 0,10.97112 -1.49464,1.43647 -2.98926,2.87296 -4.48389,4.30945 -3.90344,-8.7e-4 -7.80687,-0.003 -11.71032,-0.003 -0.73831,-0.71108 -1.47661,-1.42215 -2.21492,-2.13325 z m 15.7935,-0.3966 c 0.69272,-0.6654 1.38542,-1.33082 2.07815,-1.99622 0,-3.51203 0,-7.02405 0,-10.53608 -1.19042,-1.19083 -2.38085,-2.38165 -3.57126,-3.57245 -0.96779,-0.0272 -1.96561,0.0529 -2.91533,-0.039 -0.73407,-0.46323 -1.6717,-0.91579 -1.8641,-1.83756 0.63372,-0.25041 2.513,0.88257 2.58189,0.0108 -0.686,-0.62957 0.20857,-0.41224 0.66156,-0.44444 1.70242,0 3.40483,0 5.10724,0 0,-1.89012 0,-3.78025 0,-5.670364 -1.38695,-1.332606 -2.77389,-2.665195 -4.16084,-3.997802 -3.76046,8.77e-4 -7.52094,0.0035 -11.28141,0.0035 -1.38728,1.332553 -2.77455,2.665099 -4.16184,3.997673 -2.8e-4,3.670113 -5.6e-4,7.340263 -8.6e-4,11.010393 1.19043,1.19083 2.38085,2.38163 3.57126,3.57247 0.76548,0 1.53098,0 2.29646,0 -1.14079,1.29263 0.75595,0.76553 1.44465,0.43345 1.13499,0.74987 -1.29029,1.14933 -1.55471,1.55965 0.75126,0.56886 -0.41723,0.27427 -0.79876,0.35333 -1.64403,0.014 -3.28806,0.0291 -4.93208,0.0438 -0.009,1.69219 -0.0186,3.38436 -0.0278,5.07654 1.38302,1.34705 2.77302,2.68695 4.16374,4.0261 3.76199,5.2e-4 7.52394,8.7e-4 11.28593,0.002 0.69274,-0.66538 1.38547,-1.3309 2.07821,-1.9962 z m -15.06579,-0.37818 c -0.63884,-0.61401 -1.2777,-1.22801 -1.91654,-1.842 -0.002,-1.45918 -0.005,-2.91835 -0.006,-4.37753 1.86197,0.006 3.72475,-0.0216 5.58605,0.0296 -0.95067,0.25088 -2.0949,1.89985 -1.28785,2.54793 0.88605,-1.17743 2.5088,-0.9015 3.58999,-1.66707 1.00285,-0.67123 0.37207,1.61185 0.53753,2.22146 0.10953,1.24298 -0.15001,2.46993 -1.2203,3.22565 -0.58102,1.00684 -1.51039,1.93675 -2.78344,1.69255 -0.52399,0.15281 -0.84813,-0.20517 -1.17423,-0.5581 -0.44142,-0.42417 -0.88281,-0.8483 -1.32421,-1.27247 z m 11.10119,1.73727 c -1.08608,-0.48537 -2.25189,-1.25784 -2.7888,-2.3408 -0.16017,-1.23168 -0.2555,-2.62492 -0.0123,-3.80616 1.1278,0.62471 2.60478,0.12581 3.58786,1.1792 1.38407,0.90876 0.47484,-1.77805 -0.28681,-2.0003 -1.16162,-0.35392 0.54471,-1.80264 -1.06288,-1.70371 -1.1992,-0.0371 -1.30702,-1.81088 0.0339,-0.86813 0.84679,0.51025 1.51264,-0.14965 0.53206,-0.75495 -0.5723,-0.12984 -2.35023,-1.28351 -1.34113,-1.41632 0.48077,0.30823 1.35074,0.49112 1.79438,0.48638 -0.13405,-1.4776 -1.71506,-1.80362 -2.62101,-2.66296 -0.82076,-1.13932 1.88331,0.36697 1.90225,-0.51505 -0.44478,-0.63833 -2.41345,-1.01489 -1.74015,-1.90787 0.73275,-0.0668 2.81944,1.6465 2.38445,0.0158 -0.61971,-0.83372 0.18663,-0.61478 0.73329,-0.63192 0.40269,0.0664 0.91733,-0.13738 1.24681,0.10564 1.04777,1.0482 2.09552,2.09638 3.14328,3.14457 0,3.36689 0,6.73378 0,10.10069 -1.27508,1.22527 -2.55018,2.45052 -3.82525,3.67581 -0.55989,-0.014 -1.13239,0.0357 -1.68031,-0.10003 z M 120.3542,111.10542 c -0.55044,-0.55064 -1.10087,-1.10131 -1.65132,-1.65196 9.6e-4,-3.52689 0.002,-7.05378 0.003,-10.580674 1.27911,-1.226078 2.55822,-2.45217 3.83732,-3.678267 3.61973,-3.32e-4 7.23944,-6.66e-4 10.85916,-8.76e-4 1.27705,1.226401 2.55408,2.452784 3.83111,3.679176 0,1.638241 0,3.276511 0,4.914741 -2.05888,0 -4.11776,0 -6.17664,0 -0.51452,-0.451 -2.8714,-1.226 -1.01634,-1.26141 1.56957,0.0272 -0.49554,-0.93197 -0.88643,-1.26711 -0.18843,-0.67086 1.41149,-0.25418 0.28214,-0.99124 -1.09736,-0.314168 0.54259,-0.817071 -0.49815,-1.208416 -0.96487,-0.374037 0.55963,-1.166253 -0.54973,-1.284781 0.6244,-0.700486 -0.5375,-0.829093 -0.4397,-1.695403 -0.0182,0.523546 -0.63045,1.157116 -0.73138,1.45089 1.15303,0.580843 -1.70006,1.423985 2.8e-4,1.480119 0.28617,0.316478 -2.17704,1.230921 -0.61286,1.247821 0.86975,0.66013 -2.42046,1.42372 -0.54947,1.49296 1.14404,-0.50481 1.05723,0.60792 0.11321,0.81453 -0.68396,0.5196 -2.39473,1.0234 -2.19189,1.96172 0.79083,-0.15018 1.74544,-0.14895 2.39206,-0.54434 0.18059,1.50273 -2.05518,1.60901 -2.45724,2.87217 -0.22,0.46789 -0.46037,2.06003 0.35115,1.00737 0.64071,-0.16403 1.67988,-0.58028 2.15007,-0.47866 0.10316,0.90301 -2.83834,1.52792 -1.13865,1.79365 0.52096,-0.0514 1.76821,-0.79068 1.16704,0.30733 -0.46858,0.69615 -2.77715,1.46365 -2.19276,2.11072 0.66367,-0.11777 2.27571,-0.18271 1.34544,0.86703 -0.6772,0.50622 -1.54249,0.22152 -2.32074,0.29479 -0.44676,-0.0618 -0.9984,0.12933 -1.37349,-0.10565 -0.51524,-0.51535 -1.03048,-1.03072 -1.54572,-1.54607 z"
         style="fill:#ffffff;fill-opacity:0.81684983;stroke-width:0.05371215" />
    </g>
  </g>
</svg>
